<?xml version="1.0" encoding="iso-8859-1"?>
<!-- Uploaded to: SVG Repo, www.svgrepo.com, Generator: SVG Repo Mixer Tools -->
<svg version="1.1" id="Layer_1" xmlns="http://www.w3.org/2000/svg" xmlns:xlink="http://www.w3.org/1999/xlink" 
	 viewBox="0 0 512 512" xml:space="preserve">
<rect x="4" y="109.852" style="fill:#FFFFFF;" width="504" height="358.496"/>
<g>
	<polygon style="fill:#D6D6D6;" points="369.968,431.172 142.032,431.172 104.664,459.588 407.336,459.588 	"/>
	<polygon style="fill:#D6D6D6;" points="113.32,431.172 47.632,431.172 10.256,459.588 76.072,459.588 	"/>
	<polygon style="fill:#D6D6D6;" points="464.368,431.172 398.68,431.172 435.928,459.588 501.744,459.588 	"/>
	<polygon style="fill:#D6D6D6;" points="369.968,147.788 142.032,147.788 104.664,119.372 407.336,119.372 	"/>
	<polygon style="fill:#D6D6D6;" points="113.32,147.788 47.632,147.788 10.256,119.372 76.072,119.372 	"/>
	<polygon style="fill:#D6D6D6;" points="464.368,147.788 398.68,147.788 435.928,119.372 501.744,119.372 	"/>
	<path style="fill:#D6D6D6;" d="M504,113.852v350.496H8V113.852H504 M512,105.852H0v366.496h512V105.852L512,105.852z"/>
</g>
<path d="M0,119.372V55.636c0-8.8,7.2-16,16-16h479.96c8.8,0,16,7.2,16,16v63.728H0V119.372z"/>
<polygon style="fill:#FFFFFF;" points="471.624,101.508 171.536,101.508 200.24,57.508 471.624,57.508 "/>
<circle style="fill:#E50914;" cx="53.904" cy="78.908" r="13.608"/>
<circle style="fill:#939393;" cx="89.976" cy="78.908" r="13.608"/>
<circle style="fill:#D6D6D6;" cx="126.056" cy="78.908" r="13.608"/>
<path d="M215.616,71.244l1.912,8.312c0.416,1.952,0.832,3.944,1.168,5.936h0.08c0.376-1.992,0.976-4.024,1.504-5.896l2.368-8.352
	h3.76l2.296,8.128c0.56,2.144,1.048,4.136,1.464,6.128h0.08c0.296-1.992,0.712-3.984,1.2-6.128l2.032-8.128h4.544l-5.752,18.312
	h-4.288l-2.176-7.448c-0.56-1.912-0.976-3.648-1.392-5.864h-0.08c-0.376,2.256-0.856,4.064-1.392,5.864l-2.328,7.448h-4.328
	l-5.408-18.312H215.616z"/>
<path d="M244.384,71.244l1.912,8.312c0.416,1.952,0.832,3.944,1.168,5.936h0.08c0.376-1.992,0.976-4.024,1.504-5.896l2.368-8.352
	h3.76l2.296,8.128c0.56,2.144,1.048,4.136,1.464,6.128h0.08c0.296-1.992,0.712-3.984,1.2-6.128l2.032-8.128h4.544l-5.752,18.312
	h-4.288l-2.176-7.448c-0.56-1.912-0.976-3.648-1.392-5.864h-0.08c-0.376,2.256-0.856,4.064-1.392,5.864l-2.328,7.448h-4.328
	l-5.416-18.312H244.384z"/>
<path d="M273.152,71.244l1.912,8.312c0.416,1.952,0.832,3.944,1.168,5.936h0.08c0.376-1.992,0.976-4.024,1.504-5.896l2.368-8.352
	h3.76l2.296,8.128c0.56,2.144,1.048,4.136,1.464,6.128h0.08c0.296-1.992,0.712-3.984,1.2-6.128l2.032-8.128h4.544l-5.752,18.312
	h-4.288l-2.176-7.448c-0.56-1.912-0.976-3.648-1.392-5.864h-0.08c-0.376,2.256-0.856,4.064-1.392,5.864l-2.328,7.448h-4.328
	l-5.416-18.312H273.152z"/>
<path d="M296.304,86.996c0-1.736,1.2-2.968,2.856-2.968c1.696,0,2.856,1.2,2.856,2.968c0,1.688-1.128,2.968-2.856,2.968
	C297.48,89.964,296.304,88.684,296.304,86.996z"/>
<polygon points="342.688,464.212 169.312,464.212 193.312,445.964 318.688,445.964 "/>
<rect y="459.596" width="512" height="12.768"/>
<polygon points="501.744,459.588 435.928,459.588 407.336,459.588 104.664,459.588 76.072,459.588 10.256,459.588 0,459.588 
	0,472.356 512,472.356 512,459.588 "/>
<polygon points="440.352,92.508 437.496,89.708 447.384,79.548 436.904,69.324 439.696,66.468 453.04,79.468 "/>
<rect x="421.616" y="77.508" width="26.416" height="4"/>
<g>
	<path style="fill:#E50914;" d="M256,414.204c-68.16,0-123.608-55.448-123.608-123.6S187.848,166.988,256,166.988
		s123.6,55.456,123.6,123.608S324.16,414.204,256,414.204z M256,174.988c-63.752,0-115.608,51.856-115.608,115.608
		c0,63.744,51.856,115.6,115.608,115.6c63.744,0,115.6-51.856,115.6-115.6C371.608,226.852,319.744,174.988,256,174.988z"/>
	<rect x="252" y="167.388" style="fill:#E50914;" width="8" height="240.08"/>
	<rect x="136.24" y="286.604" style="fill:#E50914;" width="242" height="8"/>
	<path style="fill:#E50914;" d="M255.856,259.628c-61.728,0-87.08-52.888-87.328-53.432l7.248-3.384
		c0.936,1.992,23.552,48.816,80.08,48.816c56.672,0,79.232-47.792,79.464-48.264l7.264,3.328
		C342.336,207.228,317.6,259.628,255.856,259.628z"/>
	<path style="fill:#E50914;" d="M175.776,378.372l-7.248-3.384c0.248-0.536,25.6-53.424,87.328-53.424
		c61.744,0,86.488,52.4,86.728,52.928l-7.264,3.336c-0.912-1.968-22.952-48.264-79.464-48.264
		C199.328,329.572,176.712,376.38,175.776,378.372z"/>
	<path style="fill:#E50914;" d="M250.704,414.02c-2.352-2.16-57.592-53.52-57.592-123.424c0-69.976,56.48-119.416,58.88-121.488
		l5.216,6.064c-0.56,0.488-56.104,49.176-56.104,115.424c0,66.312,54.448,117.016,55,117.512L250.704,414.02z"/>
	<path style="fill:#E50914;" d="M261.288,414.02l-5.408-5.904c0.552-0.496,55.008-51.2,55.008-117.512
		c0-66.24-55.544-114.936-56.112-115.424l5.224-6.064c2.408,2.072,58.888,51.504,58.888,121.488
		C318.896,360.5,263.64,411.868,261.288,414.02z"/>
</g>
</svg>